G04 #@! TF.GenerationSoftware,KiCad,Pcbnew,(6.0.7)*
G04 #@! TF.CreationDate,2023-07-18T19:21:52+02:00*
G04 #@! TF.ProjectId,anavi-macro-pad-12,616e6176-692d-46d6-9163-726f2d706164,1.0*
G04 #@! TF.SameCoordinates,Original*
G04 #@! TF.FileFunction,Paste,Bot*
G04 #@! TF.FilePolarity,Positive*
%FSLAX46Y46*%
G04 Gerber Fmt 4.6, Leading zero omitted, Abs format (unit mm)*
G04 Created by KiCad (PCBNEW (6.0.7)) date 2023-07-18 19:21:52*
%MOMM*%
%LPD*%
G01*
G04 APERTURE LIST*
%ADD10R,2.550000X2.500000*%
%ADD11R,1.200000X0.900000*%
%ADD12R,1.700000X1.700000*%
G04 APERTURE END LIST*
D10*
X58643266Y-75112866D03*
X72493266Y-72572866D03*
X78643266Y-75112866D03*
X92493266Y-72572866D03*
X98643266Y-75112866D03*
X112493266Y-72572866D03*
X58643266Y-94112866D03*
X72493266Y-91572866D03*
X78643266Y-94112866D03*
X92493266Y-91572866D03*
X98643266Y-94112866D03*
X112493266Y-91572866D03*
X58643266Y-113112866D03*
X72493266Y-110572866D03*
X78643266Y-113112866D03*
X92493266Y-110572866D03*
X98643266Y-113112866D03*
X112493266Y-110572866D03*
X58594200Y-132290000D03*
X72444200Y-129750000D03*
X78634800Y-132290000D03*
X92484800Y-129750000D03*
X98650000Y-132290000D03*
X112500000Y-129750000D03*
D11*
X75936400Y-72713879D03*
X75936400Y-69413879D03*
X95936400Y-72713879D03*
X95936400Y-69413879D03*
X54936400Y-91713879D03*
X54936400Y-88413879D03*
X75936400Y-91713879D03*
X75936400Y-88413879D03*
X95936400Y-91713879D03*
X95936400Y-88413879D03*
X54936400Y-110713879D03*
X54936400Y-107413879D03*
X75936400Y-110713879D03*
X75936400Y-107413879D03*
X95936400Y-110713879D03*
X95936400Y-107413879D03*
D12*
X117933266Y-84072866D03*
X117933266Y-81532866D03*
X117933266Y-78992866D03*
X50933266Y-97992866D03*
X50933266Y-100532866D03*
X50933266Y-103072866D03*
X50933266Y-84072866D03*
X50933266Y-81532866D03*
X50933266Y-78992866D03*
X117933266Y-98032866D03*
X117933266Y-100572866D03*
X117933266Y-103112866D03*
D11*
X54936400Y-72713879D03*
X54936400Y-69413879D03*
D12*
X50875000Y-122130000D03*
X50875000Y-119590000D03*
X50875000Y-117050000D03*
D11*
X54936400Y-129713879D03*
X54936400Y-126413879D03*
X75936400Y-129713879D03*
X75936400Y-126413879D03*
D12*
X117925000Y-122155000D03*
X117925000Y-119615000D03*
X117925000Y-117075000D03*
D11*
X95936400Y-129713879D03*
X95936400Y-126413879D03*
M02*
