M48
; DRILL file {KiCad (6.0.7)} date Tue Jul 18 19:21:59 2023
; FORMAT={-:-/ absolute / inch / decimal}
; #@! TF.CreationDate,2023-07-18T19:21:59+02:00
; #@! TF.GenerationSoftware,Kicad,Pcbnew,(6.0.7)
; #@! TF.FileFunction,Plated,1,2,PTH
FMAT,2
INCH
; #@! TA.AperFunction,Plated,PTH,ViaDrill
T1C0.0157
; #@! TA.AperFunction,Plated,PTH,ComponentDrill
T2C0.0394
; #@! TA.AperFunction,Plated,PTH,ComponentDrill
T3C0.1260
%
G90
G05
T1
X1.95Y-4.152
X2.024Y-4.5
X2.8947Y-3.1309
X2.8986Y-2.7677
X2.9035Y-4.2648
X2.9045Y-4.623
X2.94Y-3.568
X2.942Y-3.87
X3.3583Y-1.562
X3.3612Y-1.6565
X3.402Y-1.264
X3.4173Y-1.3524
X3.5Y-2.022
X3.628Y-1.334
X3.685Y-3.0098
X3.685Y-3.3671
X3.69Y-3.8809
X3.6919Y-4.6161
X3.6949Y-4.2618
X3.946Y-1.346
X4.0167Y-1.3533
X4.262Y-1.914
X4.35Y-2.632
X4.3504Y-2.064
X4.377Y-2.248
X4.3809Y-1.2441
X4.4242Y-2.5748
X4.5187Y-1.7106
X4.6093Y-4.1614
X4.6673Y-3.0344
T2
X2.5196Y-1.188
X2.6196Y-1.188
X2.7196Y-1.188
X2.8196Y-1.188
T3
X2.0826Y-5.4587
X2.0865Y-1.2398
X4.5629Y-5.4587
X4.5668Y-1.2398
T0
M30
