G04 #@! TF.GenerationSoftware,KiCad,Pcbnew,(6.0.7)*
G04 #@! TF.CreationDate,2023-07-18T19:21:52+02:00*
G04 #@! TF.ProjectId,anavi-macro-pad-12,616e6176-692d-46d6-9163-726f2d706164,1.0*
G04 #@! TF.SameCoordinates,Original*
G04 #@! TF.FileFunction,Paste,Top*
G04 #@! TF.FilePolarity,Positive*
%FSLAX46Y46*%
G04 Gerber Fmt 4.6, Leading zero omitted, Abs format (unit mm)*
G04 Created by KiCad (PCBNEW (6.0.7)) date 2023-07-18 19:21:52*
%MOMM*%
%LPD*%
G01*
G04 APERTURE LIST*
G04 Aperture macros list*
%AMRoundRect*
0 Rectangle with rounded corners*
0 $1 Rounding radius*
0 $2 $3 $4 $5 $6 $7 $8 $9 X,Y pos of 4 corners*
0 Add a 4 corners polygon primitive as box body*
4,1,4,$2,$3,$4,$5,$6,$7,$8,$9,$2,$3,0*
0 Add four circle primitives for the rounded corners*
1,1,$1+$1,$2,$3*
1,1,$1+$1,$4,$5*
1,1,$1+$1,$6,$7*
1,1,$1+$1,$8,$9*
0 Add four rect primitives between the rounded corners*
20,1,$1+$1,$2,$3,$4,$5,0*
20,1,$1+$1,$4,$5,$6,$7,0*
20,1,$1+$1,$6,$7,$8,$9,0*
20,1,$1+$1,$8,$9,$2,$3,0*%
G04 Aperture macros list end*
%ADD10RoundRect,0.250000X0.375000X0.625000X-0.375000X0.625000X-0.375000X-0.625000X0.375000X-0.625000X0*%
%ADD11R,0.800100X0.800100*%
%ADD12RoundRect,0.237500X-0.250000X-0.237500X0.250000X-0.237500X0.250000X0.237500X-0.250000X0.237500X0*%
%ADD13R,1.200000X0.900000*%
%ADD14O,2.748280X1.998980*%
%ADD15C,1.143000*%
G04 APERTURE END LIST*
D10*
X86333266Y-64294200D03*
X83533266Y-64294200D03*
X66357400Y-83217200D03*
X63557400Y-83217200D03*
X86296400Y-83217200D03*
X83496400Y-83217200D03*
X66333266Y-102263879D03*
X63533266Y-102263879D03*
X86336400Y-102263879D03*
X83536400Y-102263879D03*
X106333266Y-102267200D03*
X103533266Y-102267200D03*
D11*
X83200000Y-29450000D03*
X81300000Y-29450000D03*
X82250000Y-31448980D03*
D12*
X57677500Y-34290000D03*
X59502500Y-34290000D03*
X66802000Y-34290000D03*
X68627000Y-34290000D03*
X76116000Y-34290000D03*
X77941000Y-34290000D03*
X57677500Y-39370000D03*
X59502500Y-39370000D03*
X66905500Y-39370000D03*
X68730500Y-39370000D03*
X76116000Y-39370000D03*
X77941000Y-39370000D03*
X57677500Y-44450000D03*
X59502500Y-44450000D03*
X66802000Y-44450000D03*
X68627000Y-44450000D03*
X75946000Y-44450000D03*
X77771000Y-44450000D03*
D13*
X113325000Y-36100000D03*
X111125000Y-36100000D03*
D14*
X89593710Y-29425490D03*
X89593710Y-31965490D03*
X89593710Y-34505490D03*
X89593710Y-37045490D03*
X89593710Y-39585490D03*
X89593710Y-42125490D03*
X89593710Y-44665490D03*
X105758270Y-44665490D03*
X105758270Y-42125490D03*
X105758270Y-39585490D03*
X105758270Y-37045490D03*
X105758270Y-34505490D03*
X105758270Y-31965490D03*
X105758270Y-29425490D03*
D15*
X96459393Y-28739123D03*
X98999393Y-28739123D03*
X96459393Y-31279123D03*
X98999393Y-31279123D03*
D10*
X106365400Y-64294200D03*
X103565400Y-64294200D03*
X66333266Y-64294200D03*
X63533266Y-64294200D03*
X106365400Y-83344200D03*
X103565400Y-83344200D03*
D12*
X75950000Y-49530000D03*
X77775000Y-49530000D03*
D10*
X86336400Y-121463879D03*
X83536400Y-121463879D03*
D12*
X57677500Y-49530000D03*
X59502500Y-49530000D03*
X66905500Y-49530000D03*
X68730500Y-49530000D03*
D10*
X106336400Y-121363879D03*
X103536400Y-121363879D03*
X66236400Y-121463879D03*
X63436400Y-121463879D03*
M02*
