M48
; DRILL file {KiCad (6.0.7)} date Tue Jul 18 19:21:59 2023
; FORMAT={-:-/ absolute / inch / decimal}
; #@! TF.CreationDate,2023-07-18T19:21:59+02:00
; #@! TF.GenerationSoftware,Kicad,Pcbnew,(6.0.7)
; #@! TF.FileFunction,NonPlated,1,2,NPTH
FMAT,2
INCH
; #@! TA.AperFunction,NonPlated,NPTH,ComponentDrill
T1C0.0670
; #@! TA.AperFunction,NonPlated,NPTH,ComponentDrill
T2C0.1181
; #@! TA.AperFunction,NonPlated,NPTH,ComponentDrill
T3C0.1570
%
G90
G05
T1
X2.3545Y-5.0083
X2.3564Y-2.7572
X2.3564Y-3.5052
X2.3564Y-4.2533
X2.7545Y-5.0083
X2.7564Y-2.7572
X2.7564Y-3.5052
X2.7564Y-4.2533
X3.1435Y-5.0083
X3.1438Y-2.7572
X3.1438Y-3.5052
X3.1438Y-4.2533
X3.5435Y-5.0083
X3.5438Y-2.7572
X3.5438Y-3.5052
X3.5438Y-4.2533
X3.9312Y-2.7572
X3.9312Y-3.5052
X3.9312Y-4.2533
X3.9315Y-5.0083
X4.3312Y-2.7572
X4.3312Y-3.5052
X4.3312Y-4.2533
X4.3315Y-5.0083
T2
X2.4545Y-5.2083
X2.4564Y-2.9572
X2.4564Y-3.7052
X2.4564Y-4.4533
X2.7045Y-5.1083
X2.7064Y-2.8572
X2.7064Y-3.6052
X2.7064Y-4.3533
X3.2435Y-5.2083
X3.2438Y-2.9572
X3.2438Y-3.7052
X3.2438Y-4.4533
X3.4935Y-5.1083
X3.4938Y-2.8572
X3.4938Y-3.6052
X3.4938Y-4.3533
X4.0312Y-2.9572
X4.0312Y-3.7052
X4.0312Y-4.4533
X4.0315Y-5.2083
X4.2812Y-2.8572
X4.2812Y-3.6052
X4.2812Y-4.3533
X4.2815Y-5.1083
T3
X2.5545Y-5.0083
X2.5564Y-2.7572
X2.5564Y-3.5052
X2.5564Y-4.2533
X3.3435Y-5.0083
X3.3438Y-2.7572
X3.3438Y-3.5052
X3.3438Y-4.2533
X4.1312Y-2.7572
X4.1312Y-3.5052
X4.1312Y-4.2533
X4.1315Y-5.0083
T0
M30
